<svg xmlns="http://www.w3.org/2000/svg" viewBox="0 0 64 64">
  <rect x="4" y="4" width="56" height="56" rx="18" fill="#FFF7E8" stroke="#EDD19C" stroke-width="2"/>
  <circle cx="18" cy="16" r="4" fill="#F1C36F" opacity=".8"/>
  <path d="M27 18c0 3-2 4-4 4-2 0-3 1-3 3v5h-5c-2 0-3 1-3 3s1 3 3 3h5v5c0 2 1 3 3 3s3-1 3-3v-5h5c2 0 3-1 3-3s-1-3-3-3h-5v-5c0-2 1-3 3-3 2 0 4-1 4-4s-2-4-4-4-4 1-4 4z" transform="translate(12 4)" fill="#F2D78E" stroke="#C79B4F" stroke-width="2" stroke-linejoin="round"/>
</svg>
